<mxfile host="app.diagrams.net" modified="2021-09-23T03:27:19.390Z" agent="5.0 (Windows NT 10.0; Win64; x64) AppleWebKit/537.36 (KHTML, like Gecko) Chrome/93.0.4577.82 Safari/537.36 Edg/93.0.961.52" etag="YipWY5LNl11TiCs9cy0X" version="15.3.0" type="github">
  <diagram id="36eU4pKLtjQGRjDaztEr" name="创建订单">
    <mxGraphModel dx="2267" dy="1337" grid="1" gridSize="10" guides="1" tooltips="1" connect="1" arrows="1" fold="1" page="1" pageScale="1" pageWidth="827" pageHeight="1169" math="0" shadow="0">
      <root>
        <mxCell id="0" />
        <mxCell id="1" parent="0" />
        <mxCell id="iOZaVTO8fL7gchkErI3n-64" value="" style="rounded=0;whiteSpace=wrap;html=1;" vertex="1" parent="1">
          <mxGeometry x="100" y="880" width="710" height="610" as="geometry" />
        </mxCell>
        <mxCell id="Fg9hLDMmJoLkrDjKvClW-10" value="service" style="verticalLabelPosition=bottom;verticalAlign=top;html=1;shape=mxgraph.basic.rect;fillColor2=none;strokeWidth=1;size=20;indent=5;sketch=0;shadow=0;" parent="1" vertex="1">
          <mxGeometry x="640" y="50" width="1070" height="670" as="geometry" />
        </mxCell>
        <mxCell id="Fg9hLDMmJoLkrDjKvClW-2" value="创建订单&lt;br&gt;CarServiceImpl::createOrder" style="shape=ext;double=1;rounded=1;whiteSpace=wrap;html=1;" parent="1" vertex="1">
          <mxGeometry x="650" y="290" width="180" height="60" as="geometry" />
        </mxCell>
        <mxCell id="Fg9hLDMmJoLkrDjKvClW-6" value="" style="edgeStyle=orthogonalEdgeStyle;rounded=0;orthogonalLoop=1;jettySize=auto;html=1;" parent="1" source="Fg9hLDMmJoLkrDjKvClW-5" target="Fg9hLDMmJoLkrDjKvClW-2" edge="1">
          <mxGeometry relative="1" as="geometry" />
        </mxCell>
        <mxCell id="Fg9hLDMmJoLkrDjKvClW-5" value="" style="verticalLabelPosition=bottom;verticalAlign=top;html=1;shadow=0;dashed=0;strokeWidth=1;shape=mxgraph.android.phone2;strokeColor=#c0c0c0;" parent="1" vertex="1">
          <mxGeometry x="560" y="295" width="30" height="50" as="geometry" />
        </mxCell>
        <mxCell id="iOZaVTO8fL7gchkErI3n-5" style="edgeStyle=orthogonalEdgeStyle;rounded=0;orthogonalLoop=1;jettySize=auto;html=1;entryX=1;entryY=0.5;entryDx=0;entryDy=0;curved=1;" edge="1" parent="1" source="iOZaVTO8fL7gchkErI3n-1" target="Fg9hLDMmJoLkrDjKvClW-2">
          <mxGeometry relative="1" as="geometry" />
        </mxCell>
        <mxCell id="iOZaVTO8fL7gchkErI3n-1" value="检查是否有未完成订单&lt;br&gt;::queryUnfinishedOrder" style="rounded=1;whiteSpace=wrap;html=1;" vertex="1" parent="1">
          <mxGeometry x="888.5" y="75" width="146" height="50" as="geometry" />
        </mxCell>
        <mxCell id="iOZaVTO8fL7gchkErI3n-6" value="" style="edgeStyle=orthogonalEdgeStyle;curved=1;rounded=0;orthogonalLoop=1;jettySize=auto;html=1;" edge="1" parent="1" source="iOZaVTO8fL7gchkErI3n-2" target="Fg9hLDMmJoLkrDjKvClW-2">
          <mxGeometry relative="1" as="geometry" />
        </mxCell>
        <mxCell id="iOZaVTO8fL7gchkErI3n-2" value="校验打车规则&lt;br&gt;::checkCallCarRules" style="rounded=1;whiteSpace=wrap;html=1;" vertex="1" parent="1">
          <mxGeometry x="900" y="270" width="123" height="60" as="geometry" />
        </mxCell>
        <mxCell id="iOZaVTO8fL7gchkErI3n-7" value="" style="edgeStyle=orthogonalEdgeStyle;curved=1;rounded=0;orthogonalLoop=1;jettySize=auto;html=1;" edge="1" parent="1" source="iOZaVTO8fL7gchkErI3n-3" target="iOZaVTO8fL7gchkErI3n-1">
          <mxGeometry relative="1" as="geometry" />
        </mxCell>
        <mxCell id="iOZaVTO8fL7gchkErI3n-3" value="car_order_info" style="shape=cylinder3;whiteSpace=wrap;html=1;boundedLbl=1;backgroundOutline=1;size=15;" vertex="1" parent="1">
          <mxGeometry x="1060" y="70" width="100" height="60" as="geometry" />
        </mxCell>
        <mxCell id="iOZaVTO8fL7gchkErI3n-8" value="" style="edgeStyle=orthogonalEdgeStyle;curved=1;rounded=0;orthogonalLoop=1;jettySize=auto;html=1;" edge="1" parent="1" source="iOZaVTO8fL7gchkErI3n-4" target="iOZaVTO8fL7gchkErI3n-2">
          <mxGeometry relative="1" as="geometry" />
        </mxCell>
        <mxCell id="iOZaVTO8fL7gchkErI3n-4" value="校验企业是否开通用车功能&lt;br&gt;SupplierCodeListUtil::checkCorpIsOpenCallCar" style="rounded=1;whiteSpace=wrap;html=1;" vertex="1" parent="1">
          <mxGeometry x="1050" y="160" width="290" height="40" as="geometry" />
        </mxCell>
        <mxCell id="iOZaVTO8fL7gchkErI3n-10" value="" style="edgeStyle=orthogonalEdgeStyle;curved=1;rounded=0;orthogonalLoop=1;jettySize=auto;html=1;" edge="1" parent="1" source="iOZaVTO8fL7gchkErI3n-9" target="iOZaVTO8fL7gchkErI3n-4">
          <mxGeometry relative="1" as="geometry" />
        </mxCell>
        <mxCell id="iOZaVTO8fL7gchkErI3n-9" value="sys_corp_supplier" style="shape=cylinder3;whiteSpace=wrap;html=1;boundedLbl=1;backgroundOutline=1;size=15;" vertex="1" parent="1">
          <mxGeometry x="1380" y="150" width="110" height="60" as="geometry" />
        </mxCell>
        <mxCell id="iOZaVTO8fL7gchkErI3n-12" value="" style="edgeStyle=orthogonalEdgeStyle;curved=1;rounded=0;orthogonalLoop=1;jettySize=auto;html=1;" edge="1" parent="1" source="iOZaVTO8fL7gchkErI3n-11" target="iOZaVTO8fL7gchkErI3n-2">
          <mxGeometry relative="1" as="geometry" />
        </mxCell>
        <mxCell id="iOZaVTO8fL7gchkErI3n-11" value="创建用车规则管理器&lt;br&gt;CheckHandlerFactory::createCheckCallCarRuleManager" style="rounded=1;whiteSpace=wrap;html=1;" vertex="1" parent="1">
          <mxGeometry x="1110" y="260" width="320" height="40" as="geometry" />
        </mxCell>
        <mxCell id="iOZaVTO8fL7gchkErI3n-14" value="" style="edgeStyle=orthogonalEdgeStyle;curved=1;rounded=0;orthogonalLoop=1;jettySize=auto;html=1;" edge="1" parent="1" source="iOZaVTO8fL7gchkErI3n-13" target="iOZaVTO8fL7gchkErI3n-11">
          <mxGeometry relative="1" as="geometry" />
        </mxCell>
        <mxCell id="iOZaVTO8fL7gchkErI3n-13" value="car_check_rule_info&lt;br&gt;car_call_rule_info" style="shape=cylinder3;whiteSpace=wrap;html=1;boundedLbl=1;backgroundOutline=1;size=15;" vertex="1" parent="1">
          <mxGeometry x="1520" y="245" width="120" height="70" as="geometry" />
        </mxCell>
        <mxCell id="iOZaVTO8fL7gchkErI3n-16" style="edgeStyle=orthogonalEdgeStyle;curved=1;rounded=0;orthogonalLoop=1;jettySize=auto;html=1;" edge="1" parent="1" source="iOZaVTO8fL7gchkErI3n-15" target="Fg9hLDMmJoLkrDjKvClW-2">
          <mxGeometry relative="1" as="geometry">
            <Array as="points">
              <mxPoint x="870" y="405" />
              <mxPoint x="870" y="320" />
            </Array>
          </mxGeometry>
        </mxCell>
        <mxCell id="iOZaVTO8fL7gchkErI3n-15" value="用车策略&lt;br&gt;StrategyCheckHandler::checkStrategy" style="rounded=1;whiteSpace=wrap;html=1;" vertex="1" parent="1">
          <mxGeometry x="910" y="380" width="217" height="50" as="geometry" />
        </mxCell>
        <mxCell id="iOZaVTO8fL7gchkErI3n-18" style="edgeStyle=orthogonalEdgeStyle;curved=1;rounded=0;orthogonalLoop=1;jettySize=auto;html=1;entryX=1;entryY=0.5;entryDx=0;entryDy=0;" edge="1" parent="1" source="iOZaVTO8fL7gchkErI3n-17" target="Fg9hLDMmJoLkrDjKvClW-2">
          <mxGeometry relative="1" as="geometry">
            <Array as="points">
              <mxPoint x="860" y="480" />
              <mxPoint x="860" y="320" />
            </Array>
          </mxGeometry>
        </mxCell>
        <mxCell id="iOZaVTO8fL7gchkErI3n-17" value="估价&lt;br&gt;::sysGetPriceInfoByStrategy" style="rounded=1;whiteSpace=wrap;html=1;" vertex="1" parent="1">
          <mxGeometry x="926.5" y="460" width="170" height="40" as="geometry" />
        </mxCell>
        <mxCell id="iOZaVTO8fL7gchkErI3n-20" style="edgeStyle=orthogonalEdgeStyle;curved=1;rounded=0;orthogonalLoop=1;jettySize=auto;html=1;entryX=1;entryY=0.5;entryDx=0;entryDy=0;" edge="1" parent="1" source="iOZaVTO8fL7gchkErI3n-19" target="Fg9hLDMmJoLkrDjKvClW-2">
          <mxGeometry relative="1" as="geometry">
            <mxPoint x="840" y="320" as="targetPoint" />
            <Array as="points">
              <mxPoint x="850" y="550" />
              <mxPoint x="850" y="320" />
            </Array>
          </mxGeometry>
        </mxCell>
        <mxCell id="iOZaVTO8fL7gchkErI3n-19" value="策略通过创建订单" style="rounded=1;whiteSpace=wrap;html=1;" vertex="1" parent="1">
          <mxGeometry x="940" y="520" width="120" height="60" as="geometry" />
        </mxCell>
        <mxCell id="iOZaVTO8fL7gchkErI3n-22" value="" style="edgeStyle=orthogonalEdgeStyle;curved=1;rounded=0;orthogonalLoop=1;jettySize=auto;html=1;entryX=1;entryY=0.5;entryDx=0;entryDy=0;" edge="1" parent="1" source="iOZaVTO8fL7gchkErI3n-21" target="iOZaVTO8fL7gchkErI3n-19">
          <mxGeometry relative="1" as="geometry" />
        </mxCell>
        <mxCell id="iOZaVTO8fL7gchkErI3n-21" value="创建平台单&lt;br&gt;::createOrderInfo" style="rounded=1;whiteSpace=wrap;html=1;" vertex="1" parent="1">
          <mxGeometry x="1210" y="480" width="120" height="60" as="geometry" />
        </mxCell>
        <mxCell id="iOZaVTO8fL7gchkErI3n-24" value="" style="edgeStyle=orthogonalEdgeStyle;curved=1;rounded=0;orthogonalLoop=1;jettySize=auto;html=1;" edge="1" parent="1" source="iOZaVTO8fL7gchkErI3n-23" target="iOZaVTO8fL7gchkErI3n-21">
          <mxGeometry relative="1" as="geometry" />
        </mxCell>
        <mxCell id="iOZaVTO8fL7gchkErI3n-23" value="car_order_info" style="shape=cylinder3;whiteSpace=wrap;html=1;boundedLbl=1;backgroundOutline=1;size=15;" vertex="1" parent="1">
          <mxGeometry x="1410" y="480" width="90" height="60" as="geometry" />
        </mxCell>
        <mxCell id="iOZaVTO8fL7gchkErI3n-28" style="edgeStyle=orthogonalEdgeStyle;curved=1;rounded=0;orthogonalLoop=1;jettySize=auto;html=1;entryX=1;entryY=0.5;entryDx=0;entryDy=0;" edge="1" parent="1" source="iOZaVTO8fL7gchkErI3n-25" target="iOZaVTO8fL7gchkErI3n-19">
          <mxGeometry relative="1" as="geometry" />
        </mxCell>
        <mxCell id="iOZaVTO8fL7gchkErI3n-25" value="创建策略细节&lt;br&gt;::createCarOrderStrategyExecuteDetail" style="rounded=1;whiteSpace=wrap;html=1;" vertex="1" parent="1">
          <mxGeometry x="1210" y="565" width="220" height="50" as="geometry" />
        </mxCell>
        <mxCell id="iOZaVTO8fL7gchkErI3n-27" value="" style="edgeStyle=orthogonalEdgeStyle;curved=1;rounded=0;orthogonalLoop=1;jettySize=auto;html=1;" edge="1" parent="1" source="iOZaVTO8fL7gchkErI3n-26" target="iOZaVTO8fL7gchkErI3n-25">
          <mxGeometry relative="1" as="geometry" />
        </mxCell>
        <mxCell id="iOZaVTO8fL7gchkErI3n-26" value="car_order_strategy_execute_detail" style="shape=cylinder3;whiteSpace=wrap;html=1;boundedLbl=1;backgroundOutline=1;size=15;" vertex="1" parent="1">
          <mxGeometry x="1480" y="560" width="200" height="70" as="geometry" />
        </mxCell>
        <mxCell id="iOZaVTO8fL7gchkErI3n-30" style="edgeStyle=orthogonalEdgeStyle;curved=1;rounded=0;orthogonalLoop=1;jettySize=auto;html=1;entryX=1;entryY=0.5;entryDx=0;entryDy=0;" edge="1" parent="1" source="iOZaVTO8fL7gchkErI3n-29" target="iOZaVTO8fL7gchkErI3n-19">
          <mxGeometry relative="1" as="geometry" />
        </mxCell>
        <mxCell id="iOZaVTO8fL7gchkErI3n-29" value="创建供应商订单&lt;br&gt;::createOrderDetailAsync" style="rounded=1;whiteSpace=wrap;html=1;" vertex="1" parent="1">
          <mxGeometry x="1210" y="650" width="150" height="40" as="geometry" />
        </mxCell>
        <mxCell id="iOZaVTO8fL7gchkErI3n-32" value="" style="edgeStyle=orthogonalEdgeStyle;curved=1;rounded=0;orthogonalLoop=1;jettySize=auto;html=1;" edge="1" parent="1" source="iOZaVTO8fL7gchkErI3n-31" target="iOZaVTO8fL7gchkErI3n-29">
          <mxGeometry relative="1" as="geometry" />
        </mxCell>
        <mxCell id="iOZaVTO8fL7gchkErI3n-31" value="CarSao::createOrder" style="rounded=1;whiteSpace=wrap;html=1;" vertex="1" parent="1">
          <mxGeometry x="1420" y="650" width="140" height="40" as="geometry" />
        </mxCell>
        <mxCell id="iOZaVTO8fL7gchkErI3n-33" value="" style="shape=image;html=1;verticalLabelPosition=bottom;verticalAlign=top;imageAspect=0;image=img/clipart/Gear_128x128.png" vertex="1" parent="1">
          <mxGeometry x="30" y="1169" width="50" height="60" as="geometry" />
        </mxCell>
        <mxCell id="iOZaVTO8fL7gchkErI3n-35" value="更新 token&lt;br&gt;CarAcceccTokenTask::updateAccessToken" style="shape=ext;double=1;rounded=1;whiteSpace=wrap;html=1;" vertex="1" parent="1">
          <mxGeometry x="130" y="910" width="250" height="50" as="geometry" />
        </mxCell>
        <mxCell id="iOZaVTO8fL7gchkErI3n-36" value="同步账号&lt;br&gt;CarAsyncAccountTask::asyncCarAccount" style="shape=ext;double=1;rounded=1;whiteSpace=wrap;html=1;" vertex="1" parent="1">
          <mxGeometry x="130" y="970" width="240" height="50" as="geometry" />
        </mxCell>
        <mxCell id="iOZaVTO8fL7gchkErI3n-37" value="排队&lt;br&gt;CarLineUpProducer::carLineUpTask" style="shape=ext;double=1;rounded=1;whiteSpace=wrap;html=1;" vertex="1" parent="1">
          <mxGeometry x="130" y="1030" width="220" height="50" as="geometry" />
        </mxCell>
        <mxCell id="iOZaVTO8fL7gchkErI3n-42" value="" style="edgeStyle=orthogonalEdgeStyle;curved=1;rounded=0;orthogonalLoop=1;jettySize=auto;html=1;" edge="1" parent="1" source="iOZaVTO8fL7gchkErI3n-38">
          <mxGeometry relative="1" as="geometry">
            <mxPoint x="380" y="935" as="targetPoint" />
          </mxGeometry>
        </mxCell>
        <mxCell id="iOZaVTO8fL7gchkErI3n-38" value="只有滴滴" style="rounded=1;whiteSpace=wrap;html=1;" vertex="1" parent="1">
          <mxGeometry x="414" y="922.5" width="70" height="25" as="geometry" />
        </mxCell>
        <mxCell id="iOZaVTO8fL7gchkErI3n-43" value="" style="edgeStyle=orthogonalEdgeStyle;curved=1;rounded=0;orthogonalLoop=1;jettySize=auto;html=1;" edge="1" parent="1" source="iOZaVTO8fL7gchkErI3n-40" target="iOZaVTO8fL7gchkErI3n-37">
          <mxGeometry relative="1" as="geometry" />
        </mxCell>
        <mxCell id="iOZaVTO8fL7gchkErI3n-40" value="只有滴滴" style="rounded=1;whiteSpace=wrap;html=1;" vertex="1" parent="1">
          <mxGeometry x="414" y="1042.5" width="70" height="25" as="geometry" />
        </mxCell>
        <mxCell id="iOZaVTO8fL7gchkErI3n-45" value="" style="edgeStyle=orthogonalEdgeStyle;curved=1;rounded=0;orthogonalLoop=1;jettySize=auto;html=1;" edge="1" parent="1" source="iOZaVTO8fL7gchkErI3n-44" target="iOZaVTO8fL7gchkErI3n-40">
          <mxGeometry relative="1" as="geometry" />
        </mxCell>
        <mxCell id="iOZaVTO8fL7gchkErI3n-44" value="car_order_info_queue" style="shape=cylinder3;whiteSpace=wrap;html=1;boundedLbl=1;backgroundOutline=1;size=15;" vertex="1" parent="1">
          <mxGeometry x="600" y="1025" width="130" height="60" as="geometry" />
        </mxCell>
        <mxCell id="iOZaVTO8fL7gchkErI3n-46" value="自动支付&lt;br&gt;CarOrderAutoPaymentTask::CarOrderAutoPayment" style="shape=ext;double=1;rounded=1;whiteSpace=wrap;html=1;" vertex="1" parent="1">
          <mxGeometry x="130" y="1090" width="290" height="50" as="geometry" />
        </mxCell>
        <mxCell id="iOZaVTO8fL7gchkErI3n-50" value="" style="edgeStyle=orthogonalEdgeStyle;curved=1;rounded=0;orthogonalLoop=1;jettySize=auto;html=1;" edge="1" parent="1" source="iOZaVTO8fL7gchkErI3n-49" target="iOZaVTO8fL7gchkErI3n-46">
          <mxGeometry relative="1" as="geometry" />
        </mxCell>
        <mxCell id="iOZaVTO8fL7gchkErI3n-49" value="&lt;span&gt;7天之前且需要支付的小单&lt;/span&gt;" style="rounded=1;whiteSpace=wrap;html=1;" vertex="1" parent="1">
          <mxGeometry x="460" y="1102.5" width="150" height="25" as="geometry" />
        </mxCell>
        <mxCell id="iOZaVTO8fL7gchkErI3n-51" value="接单前&lt;br&gt;CarOrderCallbackProducer::carOrderCallbackBeforeTripTask" style="shape=ext;double=1;rounded=1;whiteSpace=wrap;html=1;" vertex="1" parent="1">
          <mxGeometry x="130" y="1160" width="360" height="40" as="geometry" />
        </mxCell>
        <mxCell id="iOZaVTO8fL7gchkErI3n-52" value="接单中&lt;br&gt;CarOrderCallbackProducer::carOrderCallbackGoingTripTask" style="shape=ext;double=1;rounded=1;whiteSpace=wrap;html=1;" vertex="1" parent="1">
          <mxGeometry x="130" y="1220" width="360" height="40" as="geometry" />
        </mxCell>
        <mxCell id="iOZaVTO8fL7gchkErI3n-53" value="接单后&lt;br&gt;CarOrderCallbackProducer::carOrderCallbackAfterTripTask" style="shape=ext;double=1;rounded=1;whiteSpace=wrap;html=1;" vertex="1" parent="1">
          <mxGeometry x="130" y="1280" width="360" height="40" as="geometry" />
        </mxCell>
        <mxCell id="iOZaVTO8fL7gchkErI3n-56" value="" style="edgeStyle=orthogonalEdgeStyle;curved=1;rounded=0;orthogonalLoop=1;jettySize=auto;html=1;" edge="1" parent="1" source="iOZaVTO8fL7gchkErI3n-55" target="iOZaVTO8fL7gchkErI3n-51">
          <mxGeometry relative="1" as="geometry" />
        </mxCell>
        <mxCell id="iOZaVTO8fL7gchkErI3n-55" value="&lt;ul&gt;&lt;li&gt;300 等待应答&lt;/li&gt;&lt;li&gt;400 等待接驾&lt;/li&gt;&lt;li&gt;410 司机已到达&lt;/li&gt;&lt;/ul&gt;" style="text;strokeColor=none;fillColor=none;html=1;whiteSpace=wrap;verticalAlign=middle;overflow=hidden;" vertex="1" parent="1">
          <mxGeometry x="540" y="1150" width="130" height="60" as="geometry" />
        </mxCell>
        <mxCell id="iOZaVTO8fL7gchkErI3n-58" value="" style="edgeStyle=orthogonalEdgeStyle;curved=1;rounded=0;orthogonalLoop=1;jettySize=auto;html=1;" edge="1" parent="1" source="iOZaVTO8fL7gchkErI3n-57" target="iOZaVTO8fL7gchkErI3n-52">
          <mxGeometry relative="1" as="geometry" />
        </mxCell>
        <mxCell id="iOZaVTO8fL7gchkErI3n-57" value="&lt;ul&gt;&lt;li&gt;500 行程中&lt;/li&gt;&lt;/ul&gt;" style="text;strokeColor=none;fillColor=none;html=1;whiteSpace=wrap;verticalAlign=middle;overflow=hidden;" vertex="1" parent="1">
          <mxGeometry x="540" y="1225" width="110" height="30" as="geometry" />
        </mxCell>
        <mxCell id="iOZaVTO8fL7gchkErI3n-60" value="" style="edgeStyle=orthogonalEdgeStyle;curved=1;rounded=0;orthogonalLoop=1;jettySize=auto;html=1;" edge="1" parent="1" source="iOZaVTO8fL7gchkErI3n-59" target="iOZaVTO8fL7gchkErI3n-53">
          <mxGeometry relative="1" as="geometry" />
        </mxCell>
        <mxCell id="iOZaVTO8fL7gchkErI3n-59" value="&lt;ul&gt;&lt;li&gt;600 行程结束待支付&lt;/li&gt;&lt;li&gt;620 行程取消待支付&lt;/li&gt;&lt;li&gt;803 接单后取消需要支付&lt;/li&gt;&lt;/ul&gt;" style="text;strokeColor=none;fillColor=none;html=1;whiteSpace=wrap;verticalAlign=middle;overflow=hidden;" vertex="1" parent="1">
          <mxGeometry x="540" y="1270" width="180" height="60" as="geometry" />
        </mxCell>
        <mxCell id="iOZaVTO8fL7gchkErI3n-61" value="司机位置&lt;br&gt;DriverLocationTaskProducer::driverLocationTask" style="shape=ext;double=1;rounded=1;whiteSpace=wrap;html=1;" vertex="1" parent="1">
          <mxGeometry x="130" y="1340" width="270" height="50" as="geometry" />
        </mxCell>
        <mxCell id="iOZaVTO8fL7gchkErI3n-62" value="策略切换&lt;br&gt;StrategySwitchTaskProducer::strategySwitchTask" style="shape=ext;double=1;rounded=1;whiteSpace=wrap;html=1;" vertex="1" parent="1">
          <mxGeometry x="130" y="1410" width="280" height="50" as="geometry" />
        </mxCell>
        <mxCell id="iOZaVTO8fL7gchkErI3n-65" value="task" style="text;html=1;align=center;verticalAlign=middle;resizable=0;points=[];autosize=1;strokeColor=none;fillColor=none;" vertex="1" parent="1">
          <mxGeometry x="429" y="1500" width="40" height="20" as="geometry" />
        </mxCell>
        <mxCell id="iOZaVTO8fL7gchkErI3n-67" value="" style="edgeStyle=orthogonalEdgeStyle;curved=1;rounded=0;orthogonalLoop=1;jettySize=auto;html=1;" edge="1" parent="1" source="iOZaVTO8fL7gchkErI3n-66" target="iOZaVTO8fL7gchkErI3n-62">
          <mxGeometry relative="1" as="geometry" />
        </mxCell>
        <mxCell id="iOZaVTO8fL7gchkErI3n-66" value="未接单" style="rounded=1;whiteSpace=wrap;html=1;" vertex="1" parent="1">
          <mxGeometry x="450" y="1422.5" width="50" height="25" as="geometry" />
        </mxCell>
        <mxCell id="iOZaVTO8fL7gchkErI3n-69" value="" style="edgeStyle=orthogonalEdgeStyle;curved=1;rounded=0;orthogonalLoop=1;jettySize=auto;html=1;" edge="1" parent="1" source="iOZaVTO8fL7gchkErI3n-68" target="iOZaVTO8fL7gchkErI3n-61">
          <mxGeometry relative="1" as="geometry" />
        </mxCell>
        <mxCell id="iOZaVTO8fL7gchkErI3n-68" value="&lt;ul&gt;&lt;li&gt;400 等待接驾&lt;/li&gt;&lt;li&gt;410 司机已到达&lt;/li&gt;&lt;li&gt;500 行程中&lt;/li&gt;&lt;/ul&gt;" style="text;strokeColor=none;fillColor=none;html=1;whiteSpace=wrap;verticalAlign=middle;overflow=hidden;" vertex="1" parent="1">
          <mxGeometry x="429" y="1327.5" width="130" height="75" as="geometry" />
        </mxCell>
      </root>
    </mxGraphModel>
  </diagram>
</mxfile>
